<svg version="1.1" id="Layer_1" xmlns="http://www.w3.org/2000/svg" xmlns:xlink="http://www.w3.org/1999/xlink" x="0px" y="0px"
	 width="100%" viewBox="0 0 128 128" enable-background="new 0 0 128 128" xml:space="preserve">
<path fill="#94A5A5" opacity="1.000000" stroke="none" 
	d="
M1.000000,116.000000 
	C1.000000,110.977905 1.000000,105.955818 1.396362,100.465591 
	C2.847706,99.959869 3.902688,99.922272 5.410108,99.961876 
	C8.630275,100.055145 11.398005,100.071220 14.615036,100.146942 
	C20.674192,100.208946 26.284048,100.211296 32.274288,100.358612 
	C36.075771,100.632065 39.496868,100.760544 42.933987,101.313293 
	C43.306355,108.818642 44.737907,110.905434 49.967148,110.975143 
	C60.097027,111.110199 70.237328,111.206268 80.355659,110.836128 
	C82.368805,110.762489 85.828857,108.715530 86.008186,107.257156 
	C86.767784,101.079758 90.472778,100.407745 95.390930,100.790680 
	C96.296997,100.861214 97.258575,100.218590 98.644104,99.956749 
	C104.660637,100.029411 110.227585,100.050468 116.259445,100.103455 
	C119.497299,100.052277 122.270248,99.969177 125.436600,99.933563 
	C126.886665,99.987373 127.943336,99.993683 129.000000,100.000000 
	C129.000000,105.022095 129.000000,110.044182 128.763153,115.195160 
	C124.579903,121.500580 118.826164,123.149353 111.726715,123.098999 
	C80.133720,122.874908 48.538200,122.975761 16.943695,123.024567 
	C10.898787,123.033905 5.523598,121.964775 2.373603,116.032898 
	C2.268350,115.834694 1.473439,116.002701 1.000000,116.000000 
M33.000977,108.101494 
	C29.745642,106.524429 26.605940,106.129295 23.482624,108.735718 
	C27.209686,112.019081 30.904623,111.920883 33.000977,108.101494 
z"/>
<path fill="#000000" opacity="1.000000" stroke="none" 
	d="
M129.000000,99.531342 
	C127.943336,99.993683 126.886665,99.987373 125.418076,99.473938 
	C125.003784,72.196297 125.001953,45.425762 124.998703,18.655228 
	C124.997826,11.380420 123.698120,9.518301 116.524750,7.101589 
	C82.416786,7.032709 48.774281,7.018754 15.131772,7.025115 
	C9.132501,7.026250 5.054883,10.531721 5.049134,16.036516 
	C5.023395,40.682613 5.114590,65.328835 5.087322,90.422592 
	C4.993269,93.875008 4.975470,96.879837 4.957669,99.884674 
	C3.902688,99.922272 2.847706,99.959869 1.396362,99.998734 
	C1.000000,67.044327 1.000000,34.088657 1.000000,1.066494 
	C43.564934,1.066494 86.129997,1.066494 129.000000,1.066494 
	C129.000000,33.686928 129.000000,66.374809 129.000000,99.531342 
z"/>
<path fill="#000000" opacity="1.000000" stroke="none" 
	d="
M1.000000,116.476662 
	C1.473439,116.002701 2.268350,115.834694 2.373603,116.032898 
	C5.523598,121.964775 10.898787,123.033905 16.943695,123.024567 
	C48.538200,122.975761 80.133720,122.874908 111.726715,123.098999 
	C118.826164,123.149353 124.579903,121.500580 128.763153,115.662025 
	C129.000000,120.320534 129.000000,124.641075 129.000000,128.960266 
	C86.333313,128.958939 43.666645,128.958939 1.000000,128.958939 
	C1.000000,124.929695 1.000000,120.941505 1.000000,116.476662 
z"/>
<path fill="#31A9CC" opacity="1.000000" stroke="none" 
	d="
M5.410108,99.961868 
	C4.975470,96.879837 4.993269,93.875008 5.252922,90.088089 
	C6.348929,85.450233 6.985411,81.530235 8.100267,77.751366 
	C10.848315,68.436691 13.686970,59.122215 21.228991,52.214989 
	C25.645239,55.776096 30.170410,57.014164 35.409367,55.357887 
	C36.527031,55.004539 37.948196,55.165844 39.113979,55.496937 
	C42.121941,56.351242 43.249035,55.644012 42.292660,52.422279 
	C42.046406,51.592724 42.055855,50.402275 42.481678,49.702435 
	C46.587811,42.953991 45.551701,36.454651 42.123314,29.989250 
	C44.842960,28.986227 47.200718,28.022425 49.559975,27.523521 
	C49.578514,33.302532 49.425735,38.623951 49.653919,43.928982 
	C49.966499,51.196182 54.796627,55.997238 61.511856,56.083447 
	C68.366203,56.171440 73.535240,51.151833 73.863831,43.795925 
	C74.071144,39.154835 74.093376,34.487156 73.821571,29.853519 
	C73.733658,28.354921 72.447411,26.926615 71.709320,25.466156 
	C70.910103,26.874590 69.516022,28.244028 69.420670,29.698599 
	C69.106239,34.495358 69.420143,39.330486 69.190735,44.136459 
	C68.973534,48.686466 65.660873,51.785938 61.572056,51.711224 
	C57.480171,51.636456 54.257172,48.456699 54.073940,43.934605 
	C53.892544,39.457699 54.138775,34.963501 53.958542,30.486502 
	C53.889217,28.764498 53.160587,27.069036 52.996544,25.099560 
	C62.648823,21.201427 71.817032,16.752123 81.481667,14.138490 
	C93.097122,10.997288 105.135147,9.418636 116.990211,7.163450 
	C123.698120,9.518301 124.997826,11.380420 124.998703,18.655228 
	C125.001953,45.425762 125.003784,72.196297 125.024673,99.426453 
	C122.270248,99.969177 119.497299,100.052277 116.281227,99.658623 
	C115.971375,94.038406 116.278801,88.829491 110.952988,85.475014 
	C114.643906,78.885307 113.959312,73.236092 109.208786,69.550354 
	C104.473305,65.876297 99.403816,66.449020 93.649124,71.137955 
	C87.350464,66.310272 82.155983,65.985054 77.598518,70.021667 
	C73.130295,73.979240 72.811729,79.196938 76.267578,85.965576 
	C70.466316,89.530304 71.934052,95.031227 71.213120,99.990204 
	C66.590240,99.978539 62.408512,99.973312 58.195862,99.521179 
	C58.364475,93.916008 58.247578,88.855553 54.035645,84.765953 
	C58.164661,76.185555 54.501755,67.754341 46.250561,67.482620 
	C42.887787,67.371880 39.436962,69.935005 35.772484,71.023476 
	C29.911156,66.271774 24.765089,66.015602 20.243690,70.004974 
	C15.795562,73.929703 15.436907,79.366577 18.889612,85.966675 
	C13.268649,89.583145 14.074583,94.948334 14.165734,100.087288 
	C11.398005,100.071220 8.630275,100.055145 5.410108,99.961868 
M106.413658,38.906818 
	C108.351349,35.995388 110.325958,33.107693 112.216957,30.166248 
	C114.361473,26.830462 113.243225,25.194353 109.431053,25.163118 
	C105.099220,25.127626 100.750191,24.931677 96.443535,25.261383 
	C94.850426,25.383348 93.356476,26.800732 91.817307,27.627316 
	C93.292091,28.346443 94.719620,29.532412 96.251495,29.687441 
	C99.433350,30.009453 102.670525,29.784698 106.791824,29.784698 
	C105.302444,32.260899 104.516197,33.684059 103.621368,35.035309 
	C100.127213,40.311695 96.537445,45.525745 93.103180,50.840488 
	C90.558746,54.778156 91.284576,56.057354 96.018364,56.136242 
	C100.515823,56.211185 105.024963,56.309639 109.508339,56.046352 
	C110.792290,55.970951 112.004547,54.674667 113.249680,53.938187 
	C111.982719,53.225857 110.757332,52.007236 109.440750,51.899132 
	C105.933525,51.611145 102.387039,51.801205 97.864388,51.801205 
	C101.071129,46.970093 103.546066,43.241486 106.413658,38.906818 
M80.348572,28.328562 
	C80.343575,36.444344 80.250999,44.562115 80.435341,52.673595 
	C80.460724,53.790413 81.859985,54.876011 82.623177,55.976067 
	C83.402649,54.902542 84.832428,53.844166 84.857849,52.753067 
	C85.046844,44.641457 85.010162,36.522530 84.884331,28.408382 
	C84.869461,27.450254 83.886101,26.507147 83.351700,25.557077 
	C82.384911,26.208981 81.418121,26.860884 80.348572,28.328562 
z"/>
<path fill="#808F8D" opacity="1.000000" stroke="none" 
	d="
M58.226780,99.968094 
	C62.408512,99.973312 66.590240,99.978539 71.700256,100.062111 
	C81.096649,100.060188 89.564758,99.979904 98.073929,99.882103 
	C98.114990,99.864578 98.194534,99.905144 98.194534,99.905144 
	C97.258575,100.218590 96.296997,100.861214 95.390930,100.790680 
	C90.472778,100.407745 86.767784,101.079758 86.008186,107.257156 
	C85.828857,108.715530 82.368805,110.762489 80.355659,110.836128 
	C70.237328,111.206268 60.097027,111.110199 49.967148,110.975143 
	C44.737907,110.905434 43.306355,108.818642 43.314541,101.152069 
	C48.528309,100.367081 53.377544,100.167587 58.226780,99.968094 
z"/>
<path fill="#66DBB9" opacity="1.000000" stroke="none" 
	d="
M58.195862,99.521179 
	C53.377544,100.167587 48.528309,100.367081 43.298519,100.727798 
	C39.496868,100.760544 36.075771,100.632065 32.283096,99.886490 
	C32.267975,95.555176 32.624435,91.840958 33.258919,87.969933 
	C34.360207,87.139145 35.183464,86.465164 36.376122,85.867569 
	C42.647785,89.819618 48.386917,90.316917 53.850994,85.117973 
	C58.247578,88.855553 58.364475,93.916008 58.195862,99.521179 
z"/>
<path fill="#945EA5" opacity="1.000000" stroke="none" 
	d="
M110.805939,85.793091 
	C116.278801,88.829491 115.971375,94.038406 115.816322,99.626694 
	C110.227585,100.050468 104.660637,100.029411 98.644104,99.956749 
	C98.194534,99.905144 98.114990,99.864578 98.079712,99.449875 
	C97.417099,95.362480 96.789757,91.689796 96.562912,88.020615 
	C101.989410,89.835678 106.594719,89.036926 110.805939,85.793091 
z"/>
<path fill="#295982" opacity="1.000000" stroke="none" 
	d="
M32.980896,88.126732 
	C32.624435,91.840958 32.267975,95.555176 31.902710,99.741531 
	C26.284048,100.211296 20.674192,100.208946 14.615036,100.146942 
	C14.074583,94.948334 13.268649,89.583145 19.217655,86.116882 
	C23.793638,89.580956 28.274534,89.576866 32.980896,88.126732 
z"/>
<path fill="#808D8E" opacity="1.000000" stroke="none" 
	d="
M33.179657,108.425064 
	C30.904623,111.920883 27.209686,112.019081 23.482624,108.735718 
	C26.605940,106.129295 29.745642,106.524429 33.179657,108.425064 
z"/>
<path fill="#66B9CC" opacity="1.000000" stroke="none" 
	d="
M20.929184,52.030762 
	C13.686970,59.122215 10.848315,68.436691 8.100267,77.751366 
	C6.985411,81.530235 6.348929,85.450233 5.329175,89.640518 
	C5.114590,65.328835 5.023395,40.682613 5.049134,16.036516 
	C5.054883,10.531721 9.132501,7.026250 15.131772,7.025115 
	C48.774281,7.018754 82.416786,7.032709 116.524750,7.101589 
	C105.135147,9.418636 93.097122,10.997288 81.481667,14.138490 
	C71.817032,16.752123 62.648823,21.201427 52.683117,25.131727 
	C51.256500,25.970087 50.407490,26.514357 49.558475,27.058624 
	C47.200718,28.022425 44.842960,28.986227 41.811943,29.872311 
	C35.850986,25.326998 30.197252,23.553780 23.759649,27.402172 
	C15.318163,32.448486 14.089894,43.101845 20.929184,52.030762 
z"/>
<path fill="#F0E7B1" opacity="1.000000" stroke="none" 
	d="
M21.228991,52.214989 
	C14.089894,43.101845 15.318163,32.448486 23.759649,27.402172 
	C30.197252,23.553780 35.850986,25.326998 41.450054,29.911530 
	C45.551701,36.454651 46.587811,42.953991 42.481678,49.702435 
	C42.055855,50.402275 42.046406,51.592724 42.292660,52.422279 
	C43.249035,55.644012 42.121941,56.351242 39.113979,55.496937 
	C37.948196,55.165844 36.527031,55.004539 35.409367,55.357887 
	C30.170410,57.014164 25.645239,55.776096 21.228991,52.214989 
M23.277102,47.647587 
	C26.016161,50.903893 29.222902,52.614590 33.210968,51.131332 
	C33.021969,49.176182 32.867573,47.579044 32.713177,45.981903 
	C34.592793,46.330463 36.472408,46.679028 38.754707,47.102264 
	C41.212986,42.785889 41.885101,38.289219 37.826466,33.220043 
	C33.008770,29.184361 28.608471,28.885628 24.584379,32.321056 
	C20.420305,35.875984 19.825224,41.643192 23.277102,47.647587 
z"/>
<path fill="#FAD6AD" opacity="1.000000" stroke="none" 
	d="
M76.635956,85.787186 
	C72.811729,79.196938 73.130295,73.979240 77.598518,70.021667 
	C82.155983,65.985054 87.350464,66.310272 93.746704,71.487030 
	C97.028236,76.631424 95.667877,81.229088 93.610207,85.926178 
	C87.658195,89.879616 82.107750,90.515244 76.635956,85.787186 
z"/>
<path fill="#FAD6AD" opacity="1.000000" stroke="none" 
	d="
M54.035645,84.765953 
	C48.386917,90.316917 42.647785,89.819618 36.288681,85.505638 
	C35.896626,80.472076 35.961411,75.876839 36.026196,71.281593 
	C39.436962,69.935005 42.887787,67.371880 46.250561,67.482620 
	C54.501755,67.754341 58.164661,76.185555 54.035645,84.765953 
z"/>
<path fill="#F5C696" opacity="1.000000" stroke="none" 
	d="
M35.772484,71.023476 
	C35.961411,75.876839 35.896626,80.472076 35.919281,85.429253 
	C35.183464,86.465164 34.360207,87.139145 33.258923,87.969933 
	C28.274534,89.576866 23.793638,89.580956 19.531082,85.930588 
	C15.436907,79.366577 15.795562,73.929703 20.243690,70.004974 
	C24.765089,66.015602 29.911156,66.271774 35.772484,71.023476 
z"/>
<path fill="#F6C696" opacity="1.000000" stroke="none" 
	d="
M93.964645,85.821434 
	C95.667877,81.229088 97.028236,76.631424 94.082001,71.619385 
	C99.403816,66.449020 104.473305,65.876297 109.208786,69.550354 
	C113.959312,73.236092 114.643906,78.885307 110.952988,85.475014 
	C106.594719,89.036926 101.989410,89.835678 96.407417,87.746628 
	C95.222504,86.919899 94.593575,86.370667 93.964645,85.821434 
z"/>
<path fill="#EEC41B" opacity="1.000000" stroke="none" 
	d="
M93.610207,85.926178 
	C94.593575,86.370667 95.222504,86.919899 96.006927,87.743118 
	C96.789757,91.689796 97.417099,95.362480 98.038651,99.467400 
	C89.564758,99.979904 81.096649,100.060188 72.141403,100.068558 
	C71.934052,95.031227 70.466316,89.530304 76.267578,85.965576 
	C82.107750,90.515244 87.658195,89.879616 93.610207,85.926178 
z"/>
<path fill="#ECE6B2" opacity="1.000000" stroke="none" 
	d="
M49.559975,27.523521 
	C50.407490,26.514357 51.256500,25.970087 52.418938,25.393650 
	C53.160587,27.069036 53.889217,28.764498 53.958542,30.486502 
	C54.138775,34.963501 53.892544,39.457699 54.073940,43.934605 
	C54.257172,48.456699 57.480171,51.636456 61.572056,51.711224 
	C65.660873,51.785938 68.973534,48.686466 69.190735,44.136459 
	C69.420143,39.330486 69.106239,34.495358 69.420670,29.698599 
	C69.516022,28.244028 70.910103,26.874590 71.709320,25.466156 
	C72.447411,26.926615 73.733658,28.354921 73.821571,29.853519 
	C74.093376,34.487156 74.071144,39.154835 73.863831,43.795925 
	C73.535240,51.151833 68.366203,56.171440 61.511856,56.083447 
	C54.796627,55.997238 49.966499,51.196182 49.653919,43.928982 
	C49.425735,38.623951 49.578514,33.302532 49.559975,27.523521 
z"/>
<path fill="#EDE6B2" opacity="1.000000" stroke="none" 
	d="
M106.217331,39.209850 
	C103.546066,43.241486 101.071129,46.970093 97.864388,51.801205 
	C102.387039,51.801205 105.933525,51.611145 109.440750,51.899132 
	C110.757332,52.007236 111.982719,53.225857 113.249680,53.938187 
	C112.004547,54.674667 110.792290,55.970951 109.508339,56.046352 
	C105.024963,56.309639 100.515823,56.211185 96.018364,56.136242 
	C91.284576,56.057354 90.558746,54.778156 93.103180,50.840488 
	C96.537445,45.525745 100.127213,40.311695 103.621368,35.035309 
	C104.516197,33.684059 105.302444,32.260899 106.791824,29.784698 
	C102.670525,29.784698 99.433350,30.009453 96.251495,29.687441 
	C94.719620,29.532412 93.292091,28.346443 91.817307,27.627316 
	C93.356476,26.800732 94.850426,25.383348 96.443535,25.261383 
	C100.750191,24.931677 105.099220,25.127626 109.431053,25.163118 
	C113.243225,25.194353 114.361473,26.830462 112.216957,30.166248 
	C110.325958,33.107693 108.351349,35.995388 106.217331,39.209850 
z"/>
<path fill="#E1E2B3" opacity="1.000000" stroke="none" 
	d="
M80.399948,27.920673 
	C81.418121,26.860884 82.384911,26.208981 83.351700,25.557076 
	C83.886101,26.507147 84.869461,27.450254 84.884331,28.408382 
	C85.010162,36.522530 85.046844,44.641457 84.857849,52.753067 
	C84.832428,53.844166 83.402649,54.902542 82.623177,55.976067 
	C81.859985,54.876011 80.460724,53.790413 80.435341,52.673595 
	C80.250999,44.562115 80.343575,36.444344 80.399948,27.920673 
z"/>
<path fill="#38ABCB" opacity="1.000000" stroke="none" 
	d="
M38.185268,33.830750 
	C41.885101,38.289219 41.212986,42.785889 38.754707,47.102264 
	C36.472408,46.679028 34.592793,46.330463 32.713181,45.981903 
	C32.867573,47.579044 33.021969,49.176182 33.210968,51.131332 
	C29.222902,52.614590 26.016161,50.903893 23.452236,47.145607 
	C28.480001,42.372665 33.332634,38.101707 38.185268,33.830750 
z"/>
<path fill="#69BACB" opacity="1.000000" stroke="none" 
	d="
M38.005867,33.525398 
	C33.332634,38.101707 28.480001,42.372665 23.348993,46.817604 
	C19.825224,41.643192 20.420305,35.875984 24.584379,32.321056 
	C28.608471,28.885628 33.008770,29.184361 38.005867,33.525398 
z"/>
</svg>